<svg width="32" height="32" viewBox="0 0 32 32" fill="none" xmlns="http://www.w3.org/2000/svg">
  <!-- Chef Hat -->
  <path d="M16 4C12.5 4 10 6.5 10 10C10 10.5 10.1 11 10.2 11.5C8.9 12.2 8 13.5 8 15V20C8 21.1 8.9 22 10 22H22C23.1 22 24 21.1 24 20V15C24 13.5 23.1 12.2 21.8 11.5C21.9 11 22 10.5 22 10C22 6.5 19.5 4 16 4Z" fill="#4CAF50"/>
  
  <!-- Chef Hat Band -->
  <rect x="8" y="20" width="16" height="2" fill="#388E3C"/>
  
  <!-- Lightbulb -->
  <circle cx="20" cy="8" r="3" fill="#FFEB3B" stroke="#FFC107" stroke-width="0.5"/>
  <path d="M19 10.5H21V11.5H19V10.5Z" fill="#FFC107"/>
  <path d="M19.5 11.5H20.5V12H19.5V11.5Z" fill="#FFC107"/>
</svg>
