<svg width="32" height="32" viewBox="0 0 32 32" fill="none" xmlns="http://www.w3.org/2000/svg">
  <!-- Chef Hat -->
  <path d="M16 4C12.5 4 10 6.5 10 10C10 10.5 10.1 11 10.2 11.5C8.9 12.2 8 13.5 8 15V20C8 21.1 8.9 22 10 22H22C23.1 22 24 21.1 24 20V15C24 13.5 23.1 12.2 21.8 11.5C21.9 11 22 10.5 22 10C22 6.5 19.5 4 16 4Z" fill="#4CAF50"/>
  
  <!-- Chef Hat Band -->
  <rect x="8" y="20" width="16" height="2" fill="#388E3C"/>
  
  <!-- Lightbulb -->
  <circle cx="20" cy="8" r="3" fill="#FFEB3B" stroke="#FFC107" stroke-width="0.5"/>
  <path d="M19 10.5H21V11.5H19V10.5Z" fill="#FFC107"/>
  <path d="M19.5 11.5H20.5V12H19.5V11.5Z" fill="#FFC107"/>
  
  <!-- Lightbulb rays -->
  <path d="M20 5V4M23.5 6.5L24.2 5.8M23.5 9.5L24.2 10.2M17.5 6.5L16.8 5.8M17.5 9.5L16.8 10.2" stroke="#FFEB3B" stroke-width="0.8" stroke-linecap="round"/>
  
  <!-- Utensils -->
  <path d="M6 26L7 25L6 24L5 25L6 26Z" fill="#757575"/>
  <path d="M6 24V28" stroke="#757575" stroke-width="0.8" stroke-linecap="round"/>
  
  <path d="M26 26L27 25L26 24L25 25L26 26Z" fill="#757575"/>
  <path d="M26 24V28" stroke="#757575" stroke-width="0.8" stroke-linecap="round"/>
</svg>
